# xmcd
#
# Track frame offsets: 
#        150
#        29420
#        50472
#        85670
#        108435
#        123990
#        138307
#
# Disc length: 2242 seconds
#
# Revision: 3
# Processed by: cddbd v1.5.2PL0 Copyright (c) Steve Scherf et al.
# Submitted via: ExactAudioCopyFreeDBPlugin 1.0
#
DISCID=5508c007
DTITLE=Weather Report - Black Market
DYEAR=1976
DGENRE=Jazz Fusion
TTITLE0=Black Market
TTITLE1=Cannon Ball
TTITLE2=Gibraltar
TTITLE3=Elegant People
TTITLE4=Three Clowns
TTITLE5=Barbary Coast
TTITLE6=Herandnu
EXTD=YEAR: 76
EXTT0=
EXTT1=
EXTT2=
EXTT3=
EXTT4=
EXTT5=
EXTT6=
PLAYORDER=
